<?xml version="1.0" standalone="no"?>
<!DOCTYPE svg PUBLIC "-//W3C//DTD SVG 20010904//EN"
 "http://www.w3.org/TR/2001/REC-SVG-20010904/DTD/svg10.dtd">
<svg version="1.0" xmlns="http://www.w3.org/2000/svg"
 width="256.000000pt" height="256.000000pt" viewBox="0 0 256.000000 256.000000"
 preserveAspectRatio="xMidYMid meet">
<metadata>
Created by potrace 1.14, written by Peter Selinger 2001-2017
</metadata>
<g transform="translate(0.000000,256.000000) scale(0.100000,-0.100000)"
fill="#000000" stroke="none">
<path d="M1158 2555 c-2 -1 -28 -6 -58 -9 -292 -35 -603 -208 -801 -446 -282
-339 -370 -803 -233 -1220 107 -322 341 -590 652 -745 189 -94 355 -130 592
-128 128 1 313 34 399 70 20 8 50 21 66 28 92 39 219 113 299 174 12 9 62 57
112 107 194 194 327 464 361 734 12 94 6 301 -11 390 -51 265 -164 478 -356
671 -188 189 -401 304 -660 356 -63 12 -352 27 -362 18z"/>
</g>
</svg>
