<?xml version="1.0" standalone="no"?>
<!DOCTYPE svg PUBLIC "-//W3C//DTD SVG 20010904//EN"
 "http://www.w3.org/TR/2001/REC-SVG-20010904/DTD/svg10.dtd">
<svg version="1.0" xmlns="http://www.w3.org/2000/svg"
 width="152.000000pt" height="152.000000pt" viewBox="0 0 152.000000 152.000000"
 preserveAspectRatio="xMidYMid meet">
<metadata>
Created by potrace 1.14, written by Peter Selinger 2001-2017
</metadata>
<g transform="translate(0.000000,152.000000) scale(0.100000,-0.100000)"
fill="#000000" stroke="none">
<path d="M730 1480 l0 -40 -48 0 c-58 0 -149 -23 -220 -55 -107 -49 -207 -173
-246 -304 -17 -58 -33 -211 -22 -211 4 0 17 7 29 14 34 23 135 46 170 39 45
-8 98 -36 126 -66 l23 -26 37 28 c39 31 90 51 127 51 l24 0 0 -399 c0 -437 2
-419 -59 -442 -34 -13 -69 13 -98 72 -27 55 -56 61 -61 10 -7 -70 47 -139 117
-148 49 -7 126 19 141 47 6 12 10 181 10 439 0 342 2 421 13 421 29 0 116 -31
150 -54 l35 -24 24 25 c39 42 97 66 158 65 48 0 89 -13 163 -50 12 -6 8 75 -9
156 -33 160 -117 279 -244 346 -73 39 -175 66 -247 66 l-43 0 0 40 c0 36 -2
40 -25 40 -22 0 -25 -4 -25 -40z"/>
</g>
</svg>
